<?xml version="1.0" standalone="no"?><!DOCTYPE svg PUBLIC "-//W3C//DTD SVG 1.1//EN" "http://www.w3.org/Graphics/SVG/1.1/DTD/svg11.dtd"><svg t="1631612302661" class="icon" viewBox="0 0 1024 1024" version="1.1" xmlns="http://www.w3.org/2000/svg" p-id="2309" xmlns:xlink="http://www.w3.org/1999/xlink" width="200" height="200"><defs><style type="text/css"></style></defs><path d="M128 128h768v608H128z" fill="#FFFFFF" p-id="2310"></path><path d="M544 768v128h256v32H224v-32h256v-128H128a32 32 0 0 1-32-32V128a32 32 0 0 1 32-32h768a32 32 0 0 1 32 32v608a32 32 0 0 1-32 32H544zM128 128v608h768V128H128z" fill="#5D6D7E" p-id="2311"></path><path d="M192 192h224v32H192V192z m0 128h96v32H192v-32z m0 96h64v32H192v-32z m0 96h64v32H192v-32z m0 96h96v32H192v-32z" fill="#ACB4C0" p-id="2312"></path><path d="M512 320h96v32h-96v-32z m-96 96h320v32H416v-32z m-32 96h384v32H384v-32z m64 96h160v32h-160v-32z" fill="#27A2DF" p-id="2313"></path><path d="M735.04 752.16a288 288 0 1 1 43.008-34.912 31.872 31.872 0 0 1 11.2 7.264l135.776 135.744a32 32 0 0 1-45.248 45.28l-135.776-135.776a31.84 31.84 0 0 1-8.96-17.6zM576 736a224 224 0 1 0 0-448 224 224 0 0 0 0 448z" fill="#808FA1" p-id="2314"></path></svg>